<?xml version="1.0" encoding="utf-8"?>
<!-- Generator: Adobe Illustrator 23.0.0, SVG Export Plug-In . SVG Version: 6.00 Build 0)  -->
<svg version="1.1" xmlns="http://www.w3.org/2000/svg" xmlns:xlink="http://www.w3.org/1999/xlink" x="0px" y="0px"
	 viewBox="0 0 1920 1080" style="enable-background:new 0 0 1920 1080;" xml:space="preserve">
<style type="text/css">
	.st0{display:none;}
	.st1{display:inline;fill:#CCCCCC;}
	.st2{display:inline;}
	.st3{fill:#E6E6E6;}
	.st4{fill:#CCCCCC;}
	.st5{fill:#F2F2F2;}
</style>
<g id="Layer_1" class="st0">
	<polygon class="st1" points="690,329 690,655 1110,655 1110,387 873,387 838,329 	"/>
	<g class="st2">
		<polygon class="st3" points="696.63,650.5 817.91,414.5 1230.41,414.5 1107.73,650.5 		"/>
		<path class="st3" d="M1223,419l-118,227H704l116.66-227H1223 M1237.82,410H1223H820.66h-5.49l-2.51,4.89L696,641.89L689.26,655
			H704h401h5.46l2.52-4.85l118-227L1237.82,410L1237.82,410z"/>
	</g>
</g>
<g id="Layer_2">
	<g>
		<polygon class="st3" points="1183,334.57 1183,727 806,727 806,242 1090.43,242 		"/>
	</g>
	<polygon class="st4" points="1183,332.57 1183,333 1090,333 1090,240 1090.43,240 	"/>
	<g>
		<polygon class="st5" points="1088,401.57 1088,794 711,794 711,309 995.43,309 		"/>
	</g>
	<polygon class="st4" points="1088,399.57 1088,400 995,400 995,307 995.43,307 	"/>
</g>
</svg>
