<?xml version="1.0" encoding="utf-8"?>
<!-- Generator: Adobe Illustrator 23.0.0, SVG Export Plug-In . SVG Version: 6.00 Build 0)  -->
<svg version="1.1" xmlns="http://www.w3.org/2000/svg" xmlns:xlink="http://www.w3.org/1999/xlink" x="0px" y="0px"
	 viewBox="0 0 1920 1080" style="enable-background:new 0 0 1920 1080;" xml:space="preserve">
<style type="text/css">
	.st0{display:none;}
	.st1{display:inline;fill:#FFFFFF;}
	.st2{display:inline;}
	.st3{fill:#FFFFFF;}
	.st4{fill:none;}
	.st5{font-family:'PalatinoLinotype-Bold';}
	.st6{font-size:70px;}
	.st7{fill:#FFFFFF;stroke:#FFFFFF;stroke-width:8.5;stroke-miterlimit:10;}
	.st8{fill:#FFFFFF;stroke:#FFFFFF;stroke-width:15;stroke-miterlimit:10;}
	.st9{fill:#FFFFFF;stroke:#FFFFFF;stroke-width:11;stroke-miterlimit:10;}
	.st10{fill:#FFFFFF;stroke:#FFFFFF;stroke-width:27;stroke-miterlimit:10;}
	.st11{display:inline;fill:#FFFFFF;stroke:#FFFFFF;stroke-miterlimit:10;}
	.st12{font-size:74px;}
	.st13{font-size:60.3058px;}
</style>
<g id="Layer_1" class="st0">
</g>
<g id="Layer_6">
	<g class="st0">
		<rect x="134.5" y="309.5" class="st1" width="1680" height="397"/>
		<path class="st2" d="M1812,312v392H137V312H1812 M1817,307H132v402h1685V307L1817,307z"/>
	</g>
</g>
<g id="SuperCharge">
	<g id="Layer_2">
		<polygon class="st3" points="386.33,555.53 393.05,606.82 358.85,573.99 336.09,673.76 317.74,564.01 222.3,606.99 293.01,523.54 
			243.15,488.24 291.52,486.87 215.85,380.68 325,463.47 325.74,364.01 368.03,460.53 387.38,433.44 365.55,409.26 385.04,350 
			446.65,350 424.03,410.04 438.85,433.44 399.39,474.44 477.89,447.79 392.12,507.52 481.13,562.98 		"/>
	</g>
	<rect x="283.09" y="436.55" class="st4" width="342.32" height="188.45"/>
	<text transform="matrix(1 0 0 1 283.0895 487.4766)" class="st0"><tspan x="0" y="0" class="st1 st5 st6">Super</tspan><tspan x="0" y="84" class="st1 st5 st6">Charge</tspan></text>
</g>
<g id="LCD_x5F_Viewer">
	<line class="st7" x1="784.7" y1="378.87" x2="1054.1" y2="378.87"/>
	<line class="st7" x1="1054.1" y1="566.5" x2="1054.1" y2="378.87"/>
	<line class="st7" x1="784.7" y1="566.5" x2="1054.1" y2="566.5"/>
	<line class="st7" x1="784.7" y1="378.87" x2="784.7" y2="566.5"/>
	<line class="st7" x1="989.85" y1="378.87" x2="989.85" y2="566.5"/>
	<line class="st7" x1="921.23" y1="378.87" x2="921.23" y2="566.5"/>
	<line class="st7" x1="852.6" y1="377.78" x2="852.6" y2="565.4"/>
	<line class="st7" x1="783.97" y1="440.2" x2="1053.37" y2="440.2"/>
	<line class="st7" x1="784.7" y1="502.25" x2="1054.1" y2="502.25"/>
	<polyline class="st8" points="755.5,545.33 835.08,464.29 884.72,538.76 935.83,414.65 965.76,473.05 1076,403.69 	"/>
	<circle class="st9" cx="849.75" cy="491.75" r="77.75"/>
	<line class="st10" x1="898.5" y1="551.5" x2="961.5" y2="627.5"/>
	<line class="st10" x1="790.5" y1="541.5" x2="839.5" y2="498.5"/>
	<line class="st10" x1="872.5" y1="534.5" x2="824.5" y2="499.5"/>
	<line class="st10" x1="919.5" y1="457.5" x2="862.5" y2="523.5"/>
	<rect x="823.32" y="448.02" class="st4" width="358.47" height="222.13"/>
	<text transform="matrix(1 0 0 1 823.3193 501.8594)" class="st0"><tspan x="0" y="0" class="st11 st5 st12">LCD</tspan><tspan x="0" y="88.8" class="st11 st5 st12">VIEWER</tspan></text>
</g>
<g id="Biological_activity">
	<circle class="st3" cx="1364.79" cy="457.79" r="86.79"/>
	<path class="st3" d="M1489.07,596.74c0,21.01-14.98,38.27-31.31,44.5c-7.84,2.99-14.37,2.83-15.96,2.76
		c-19.8-0.81-47.27-17.85-47.27-47.27c0-26.1,21.16-47.27,47.27-47.27C1467.91,549.47,1489.07,570.63,1489.07,596.74z"/>
	<circle class="st3" cx="1561.6" cy="523.39" r="72.53"/>
	<path class="st3" d="M1485,614.67c0,0,7.33-30.97,66.01-19.56l-61.94-67.64c0,0,7.24,32.44-30.2,25.18
		c-37.44-7.25-26.85-32.52-13.81-61.85l-84.75,53.79c0,0,44.01-3.26,37.49,35.04L1485,614.67z"/>
	<rect x="1313.11" y="448.23" class="st4" width="412.29" height="161.05"/>
	<text id="Biological_Activity__x5B_beta_x5D_" transform="matrix(1 0 0 1 1313.1123 492.104)" class="st0"><tspan x="0" y="0" class="st1 st5 st13">Biological</tspan><tspan x="0" y="72.37" class="st1 st5 st13">Activity [beta]</tspan></text>
	<circle class="st3" cx="1530.63" cy="409.3" r="20.37"/>
</g>
</svg>
